# xmcd
#
# Track frame offsets:
#	150
#	15122
#	31330
#	45430
#	64162
#	77605
#	91250
#	106287
#	119060
#	131547
#	145710
#	159135
#	172977
#
# Disc length: 2556 seconds
#
# Revision: 0
# Processed by: cddbd v1.5.1PL0 Copyright (c) Steve Scherf et al.
# Submitted via: EasyCDDAExtractor 8.0.0.1
#
DISCID=9309fa0d
DTITLE=Buffalo Wayne - starmaker
DYEAR=1991
DGENRE=Blues
TTITLE0=A texan night out
TTITLE1=Music in my feet
TTITLE2=Free me
TTITLE3=No more steppin'stones
TTITLE4=Get on board
TTITLE5=Black and white pony
TTITLE6=Starmaker
TTITLE7=Old-time plantation
TTITLE8=Country music city USA
TTITLE9=My friend in houston
TTITLE10=Wild horses
TTITLE11=Life's busted
TTITLE12=Fly away
EXTD=
EXTT0=
EXTT1=
EXTT2=
EXTT3=
EXTT4=
EXTT5=
EXTT6=
EXTT7=
EXTT8=
EXTT9=
EXTT10=
EXTT11=
EXTT12=
PLAYORDER=
